<svg width="32" height="32" viewBox="0 0 32 32" fill="none" xmlns="http://www.w3.org/2000/svg">
<g clip-path="url(#clip0_383_20)">
<path d="M27 0H5C2.23858 0 0 2.23858 0 5V27C0 29.7614 2.23858 32 5 32H27C29.7614 32 32 29.7614 32 27V5C32 2.23858 29.7614 0 27 0Z" fill="black"/>
<path d="M5.44176 10.3636L8.25426 19.2045H8.36222L11.1804 10.3636H13.9077L9.89631 22H6.72585L2.70881 10.3636H5.44176ZM24.919 14.4375H22.4304C22.3849 14.1155 22.2921 13.8295 22.152 13.5795C22.0118 13.3258 21.8319 13.1098 21.6122 12.9318C21.3925 12.7538 21.1387 12.6174 20.8509 12.5227C20.5668 12.428 20.258 12.3807 19.9247 12.3807C19.3224 12.3807 18.7978 12.5303 18.3509 12.8295C17.9039 13.125 17.5573 13.5568 17.3111 14.125C17.0649 14.6894 16.9418 15.375 16.9418 16.1818C16.9418 17.0114 17.0649 17.7083 17.3111 18.2727C17.5611 18.8371 17.9096 19.2633 18.3565 19.5511C18.8035 19.839 19.3205 19.983 19.9077 19.983C20.2372 19.983 20.5421 19.9394 20.8224 19.8523C21.1065 19.7652 21.3584 19.6383 21.5781 19.4716C21.7978 19.3011 21.9796 19.0947 22.1236 18.8523C22.2713 18.6098 22.3736 18.3333 22.4304 18.0227L24.919 18.0341C24.8546 18.5682 24.6937 19.0833 24.4361 19.5795C24.1823 20.072 23.8395 20.5133 23.4077 20.9034C22.9796 21.2898 22.4683 21.5966 21.8736 21.8239C21.2827 22.0473 20.6141 22.1591 19.8679 22.1591C18.83 22.1591 17.902 21.9242 17.0838 21.4545C16.2694 20.9848 15.6255 20.3049 15.152 19.4148C14.6823 18.5246 14.4474 17.447 14.4474 16.1818C14.4474 14.9129 14.6861 13.8333 15.1634 12.9432C15.6406 12.053 16.2884 11.375 17.1065 10.9091C17.9247 10.4394 18.8452 10.2045 19.8679 10.2045C20.5421 10.2045 21.1671 10.2992 21.7429 10.4886C22.3224 10.678 22.8357 10.9545 23.2827 11.3182C23.7296 11.678 24.0933 12.1193 24.3736 12.642C24.6577 13.1648 24.8395 13.7633 24.919 14.4375Z" fill="white"/>
<path d="M28 22C29.1046 22 30 21.1046 30 20C30 18.8954 29.1046 18 28 18C26.8954 18 26 18.8954 26 20C26 21.1046 26.8954 22 28 22Z" fill="#30E8AB"/>
</g>
<defs>
<clipPath id="clip0_383_20">
<rect width="32" height="32" fill="white"/>
</clipPath>
</defs>
</svg>
